<?xml version="1.0" standalone="no"?><!DOCTYPE svg PUBLIC "-//W3C//DTD SVG 1.1//EN" "http://www.w3.org/Graphics/SVG/1.1/DTD/svg11.dtd"><svg t="1504503378266" class="icon" style="" viewBox="0 0 1024 1024" version="1.1" xmlns="http://www.w3.org/2000/svg" p-id="8044" xmlns:xlink="http://www.w3.org/1999/xlink" width="200" height="200"><defs><style type="text/css"></style></defs><path d="M576 96c0 53.024-42.976 96-96 96s-96-42.976-96-96c0-53.024 42.976-96 96-96s96 42.976 96 96z" p-id="8045" class="selected" fill="#d4237a"></path><path d="M719.008 512l48.992-35.488-133.28-206.112c-5.92-8.992-15.968-14.4-26.72-14.4l-256 0c-10.752 0-20.8 5.408-26.72 14.4l-133.28 206.112 48.992 35.488 110.656-143.584 38.464 89.728-134.112 245.856 122.656 0 21.344 320 64 0 0-320 32 0 0 320 64 0 21.344-320 122.656 0-134.112-245.856 38.464-89.728 110.656 143.584z" p-id="8046" class="selected" fill="#d4237a"></path></svg>