<?xml version="1.0" standalone="no"?><!DOCTYPE svg PUBLIC "-//W3C//DTD SVG 1.1//EN" "http://www.w3.org/Graphics/SVG/1.1/DTD/svg11.dtd"><svg t="1504507728034" class="icon" style="" viewBox="0 0 1024 1024" version="1.1" xmlns="http://www.w3.org/2000/svg" p-id="8807" xmlns:xlink="http://www.w3.org/1999/xlink" width="200" height="200"><defs><style type="text/css"></style></defs><path d="M420.48 189.44c-30.72 0-53.76 10.24-76.8 30.72C323.2 243.2 310.4 268.8 310.4 296.96v263.68c0 10.24 2.56 17.92 10.24 25.6 7.68 7.68 15.36 10.24 25.6 10.24s20.48-2.56 28.16-10.24c5.12-7.68 10.24-15.36 10.24-25.6V325.12h17.92v652.8c0 12.8 5.12 23.04 15.36 33.28 10.24 10.24 20.48 12.8 33.28 12.8 15.36 0 25.6-5.12 35.84-12.8 10.24-10.24 15.36-20.48 15.36-33.28V599.04h20.48v378.88c0 12.8 5.12 23.04 15.36 33.28 10.24 7.68 23.04 12.8 35.84 12.8 12.8 0 23.04-5.12 33.28-12.8 10.24-10.24 12.8-20.48 12.8-33.28v-652.8h20.48v235.52c0 10.24 2.56 17.92 10.24 25.6 7.68 7.68 17.92 10.24 25.6 10.24 10.24 0 20.48-2.56 25.6-10.24 5.12-7.68 10.24-15.36 10.24-25.6V296.96c0-28.16-10.24-53.76-30.72-76.8-20.48-20.48-46.08-30.72-76.8-30.72H420.48zM512.64 168.96c23.04 0 43.52-7.68 58.88-23.04 15.36-15.36 25.6-35.84 25.6-61.44 0-23.04-7.68-43.52-25.6-58.88-15.36-17.92-35.84-25.6-58.88-25.6C489.6 0 469.12 7.68 453.76 25.6 438.4 40.96 430.72 61.44 430.72 84.48c0 23.04 7.68 43.52 23.04 61.44 15.36 15.36 35.84 23.04 58.88 23.04z" p-id="8808" fill="#1296db"></path></svg>